<svg width="899" height="440" viewBox="0 0 899 440" fill="none" xmlns="http://www.w3.org/2000/svg">
<g id="gc center">
<g id="connect" filter="url(#filter0_d_47_3)">
<path id="Vector" d="M231.668 425.201C222.068 425.201 213.516 423.27 206.013 419.408C198.51 415.435 192.606 409.973 188.303 403.022C184.11 396.07 182.013 388.181 182.013 379.353C182.013 370.415 184.11 362.526 188.303 355.684C192.606 348.733 198.51 343.326 206.013 339.464C213.516 335.492 222.068 333.505 231.668 333.505C241.047 333.505 249.212 335.492 256.164 339.464C263.116 343.326 268.247 348.898 271.557 356.181L251.53 366.939C249.212 362.746 246.288 359.657 242.757 357.671C239.337 355.684 235.585 354.691 231.502 354.691C227.089 354.691 223.116 355.684 219.585 357.671C216.054 359.657 213.24 362.471 211.144 366.112C209.158 369.753 208.165 374.167 208.165 379.353C208.165 384.539 209.158 388.953 211.144 392.594C213.24 396.236 216.054 399.049 219.585 401.036C223.116 403.022 227.089 404.015 231.502 404.015C235.585 404.015 239.337 403.077 242.757 401.201C246.288 399.215 249.212 396.07 251.53 391.767L271.557 402.691C268.247 409.863 263.116 415.435 256.164 419.408C249.212 423.27 241.047 425.201 231.668 425.201ZM327.664 425.201C318.174 425.201 309.733 423.215 302.34 419.242C295.057 415.27 289.264 409.863 284.961 403.022C280.768 396.07 278.671 388.181 278.671 379.353C278.671 370.415 280.768 362.526 284.961 355.684C289.264 348.733 295.057 343.326 302.34 339.464C309.733 335.492 318.174 333.505 327.664 333.505C337.043 333.505 345.429 335.492 352.822 339.464C360.215 343.326 366.008 348.678 370.201 355.519C374.394 362.36 376.491 370.305 376.491 379.353C376.491 388.181 374.394 396.07 370.201 403.022C366.008 409.863 360.215 415.27 352.822 419.242C345.429 423.215 337.043 425.201 327.664 425.201ZM327.664 404.015C331.967 404.015 335.829 403.022 339.25 401.036C342.671 399.049 345.374 396.236 347.36 392.594C349.346 388.843 350.339 384.429 350.339 379.353C350.339 374.167 349.346 369.753 347.36 366.112C345.374 362.471 342.671 359.657 339.25 357.671C335.829 355.684 331.967 354.691 327.664 354.691C323.361 354.691 319.499 355.684 316.078 357.671C312.657 359.657 309.899 362.471 307.802 366.112C305.816 369.753 304.823 374.167 304.823 379.353C304.823 384.429 305.816 388.843 307.802 392.594C309.899 396.236 312.657 399.049 316.078 401.036C319.499 403.022 323.361 404.015 327.664 404.015ZM447.873 333.505C454.935 333.505 461.225 334.94 466.742 337.809C472.369 340.567 476.783 344.871 479.983 350.719C483.183 356.457 484.783 363.85 484.783 372.898V423.877H458.963V376.87C458.963 369.698 457.363 364.402 454.163 360.981C451.073 357.56 446.659 355.85 440.921 355.85C436.839 355.85 433.142 356.733 429.832 358.498C426.632 360.153 424.094 362.746 422.218 366.277C420.453 369.808 419.57 374.332 419.57 379.85V423.877H393.75V334.829H418.411V359.491L413.777 352.043C416.977 346.085 421.556 341.505 427.515 338.305C433.473 335.105 440.259 333.505 447.873 333.505ZM562.311 333.505C569.373 333.505 575.663 334.94 581.18 337.809C586.807 340.567 591.221 344.871 594.421 350.719C597.621 356.457 599.221 363.85 599.221 372.898V423.877H573.401V376.87C573.401 369.698 571.801 364.402 568.601 360.981C565.511 357.56 561.097 355.85 555.36 355.85C551.277 355.85 547.58 356.733 544.27 358.498C541.07 360.153 538.532 362.746 536.656 366.277C534.891 369.808 534.008 374.332 534.008 379.85V423.877H508.188V334.829H532.85V359.491L528.215 352.043C531.415 346.085 535.994 341.505 541.953 338.305C547.911 335.105 554.698 333.505 562.311 333.505ZM667.465 425.201C657.313 425.201 648.376 423.215 640.652 419.242C633.038 415.27 627.134 409.863 622.941 403.022C618.748 396.07 616.652 388.181 616.652 379.353C616.652 370.415 618.693 362.526 622.776 355.684C626.969 348.733 632.652 343.326 639.824 339.464C646.996 335.492 655.107 333.505 664.155 333.505C672.872 333.505 680.706 335.381 687.658 339.133C694.72 342.774 700.292 348.071 704.375 355.022C708.458 361.864 710.499 370.084 710.499 379.684C710.499 380.677 710.444 381.836 710.333 383.16C710.223 384.374 710.113 385.532 710.002 386.636H637.672V371.574H696.43L686.499 376.043C686.499 371.408 685.561 367.381 683.685 363.96C681.81 360.54 679.217 357.891 675.906 356.015C672.596 354.029 668.734 353.036 664.32 353.036C659.906 353.036 655.989 354.029 652.569 356.015C649.258 357.891 646.665 360.595 644.789 364.126C642.914 367.546 641.976 371.629 641.976 376.374V380.346C641.976 385.201 643.024 389.505 645.12 393.256C647.327 396.898 650.362 399.711 654.224 401.698C658.196 403.573 662.831 404.511 668.127 404.511C672.872 404.511 677.01 403.794 680.541 402.36C684.182 400.925 687.492 398.773 690.472 395.905L704.209 410.801C700.127 415.435 694.996 419.021 688.816 421.559C682.637 423.987 675.52 425.201 667.465 425.201ZM770.723 425.201C761.123 425.201 752.572 423.27 745.068 419.408C737.565 415.435 731.662 409.973 727.358 403.022C723.165 396.07 721.069 388.181 721.069 379.353C721.069 370.415 723.165 362.526 727.358 355.684C731.662 348.733 737.565 343.326 745.068 339.464C752.572 335.492 761.123 333.505 770.723 333.505C780.102 333.505 788.268 335.492 795.219 339.464C802.171 343.326 807.302 348.898 810.612 356.181L790.585 366.939C788.268 362.746 785.344 359.657 781.813 357.671C778.392 355.684 774.64 354.691 770.558 354.691C766.144 354.691 762.171 355.684 758.64 357.671C755.11 359.657 752.296 362.471 750.199 366.112C748.213 369.753 747.22 374.167 747.22 379.353C747.22 384.539 748.213 388.953 750.199 392.594C752.296 396.236 755.11 399.049 758.64 401.036C762.171 403.022 766.144 404.015 770.558 404.015C774.64 404.015 778.392 403.077 781.813 401.201C785.344 399.215 788.268 396.07 790.585 391.767L810.612 402.691C807.302 409.863 802.171 415.435 795.219 419.408C788.268 423.27 780.102 425.201 770.723 425.201ZM863.185 425.201C852.703 425.201 844.537 422.552 838.689 417.256C832.841 411.849 829.917 403.849 829.917 393.256V315.133H855.737V392.925C855.737 396.677 856.73 399.601 858.716 401.698C860.702 403.684 863.406 404.677 866.827 404.677C870.909 404.677 874.385 403.573 877.254 401.367L884.206 419.573C881.557 421.449 878.357 422.883 874.606 423.877C870.964 424.759 867.158 425.201 863.185 425.201ZM816.179 356.677V336.816H877.916V356.677H816.179Z" fill="white"/>
</g>
<g id="Gift" filter="url(#filter1_d_47_3)">
<path id="Vector-gft" d="M145.273 304.539C124.339 304.539 105.045 301.261 87.3899 294.703C69.987 287.893 54.728 278.309 41.6129 265.951C28.7501 253.592 18.6615 239.09 11.3473 222.444C4.28539 205.798 0.754395 187.512 0.754395 167.588C0.754395 147.663 4.28539 129.377 11.3473 112.731C18.6615 96.085 28.8762 81.583 41.9913 69.224C55.1064 56.866 70.4914 47.408 88.1459 40.85C105.801 34.041 125.222 30.6357 146.408 30.6357C169.864 30.6357 190.923 34.545 209.587 42.364C228.503 50.182 244.393 61.532 257.255 76.412L217.91 112.731C208.326 102.643 197.859 95.202 186.51 90.41C175.16 85.366 162.802 82.844 149.434 82.844C136.571 82.844 124.843 84.862 114.25 88.897C103.658 92.932 94.4519 98.733 86.6329 106.3C79.0666 113.866 73.1396 122.82 68.852 133.16C64.8166 143.501 62.7989 154.977 62.7989 167.588C62.7989 179.946 64.8166 191.296 68.852 201.636C73.1396 211.977 79.0666 221.057 86.6329 228.875C94.4519 236.442 103.531 242.243 113.872 246.278C124.465 250.314 136.067 252.331 148.678 252.331C160.784 252.331 172.512 250.44 183.861 246.656C195.463 242.621 206.687 235.937 217.532 226.605L252.337 270.869C237.961 281.714 221.189 290.037 202.021 295.838C183.105 301.639 164.189 304.539 145.273 304.539ZM196.346 262.924V163.426H252.337V270.869L196.346 262.924ZM426.087 300V91.924C426.087 68.972 432.896 50.687 446.516 37.067C460.136 23.1954 479.556 16.2595 504.777 16.2595C513.353 16.2595 521.549 17.1423 529.368 18.9078C537.439 20.6733 544.249 23.4476 549.797 27.2308L534.286 69.981C531.007 67.711 527.35 65.946 523.315 64.684C519.28 63.423 514.992 62.793 510.452 62.793C501.877 62.793 495.193 65.315 490.401 70.359C485.861 75.151 483.591 82.466 483.591 92.302V111.218L485.105 136.565V300H426.087ZM394.686 146.402V101.003H535.8V146.402H394.686ZM648.432 303.026C624.472 303.026 605.808 296.973 592.441 284.867C579.074 272.508 572.39 254.223 572.39 230.01V51.443H631.408V229.254C631.408 237.829 633.678 244.513 638.218 249.305C642.758 253.845 648.937 256.114 656.756 256.114C666.087 256.114 674.032 253.592 680.59 248.548L696.479 290.163C690.426 294.451 683.112 297.73 674.537 300C666.214 302.017 657.512 303.026 648.432 303.026ZM540.99 146.402V101.003H682.103V146.402H540.99Z" fill="white"/>
<path id="Vector-i" d="M305.107 298V94.463H364.125V298H305.107ZM334.616 66.089C323.771 66.089 314.943 62.937 308.134 56.631C301.324 50.326 297.919 42.507 297.919 33.176C297.919 23.8436 301.324 16.025 308.134 9.71972C314.943 3.41442 323.771 0.261719 334.616 0.261719C345.461 0.261719 354.289 3.28822 361.098 9.34142C367.908 15.1423 371.313 22.7087 371.313 32.041C371.313 41.877 367.908 50.074 361.098 56.631C354.541 62.937 345.713 66.089 334.616 66.089Z" fill="#F79256"/>
</g>
</g>
<defs>
<filter id="filter0_d_47_3" x="182.013" y="315.133" width="716.193" height="124.068" filterUnits="userSpaceOnUse" color-interpolation-filters="sRGB">
<feFlood flood-opacity="0" result="BackgroundImageFix"/>
<feColorMatrix in="SourceAlpha" type="matrix" values="0 0 0 0 0 0 0 0 0 0 0 0 0 0 0 0 0 0 127 0" result="hardAlpha"/>
<feOffset dx="10" dy="10"/>
<feGaussianBlur stdDeviation="2"/>
<feComposite in2="hardAlpha" operator="out"/>
<feColorMatrix type="matrix" values="0 0 0 0 0 0 0 0 0 0 0 0 0 0 0 0 0 0 0.25 0"/>
<feBlend mode="normal" in2="BackgroundImageFix" result="effect1_dropShadow_47_3"/>
<feBlend mode="normal" in="SourceGraphic" in2="effect1_dropShadow_47_3" result="shape"/>
</filter>
<filter id="filter1_d_47_3" x="0.754395" y="0.261719" width="709.725" height="318.277" filterUnits="userSpaceOnUse" color-interpolation-filters="sRGB">
<feFlood flood-opacity="0" result="BackgroundImageFix"/>
<feColorMatrix in="SourceAlpha" type="matrix" values="0 0 0 0 0 0 0 0 0 0 0 0 0 0 0 0 0 0 127 0" result="hardAlpha"/>
<feOffset dx="10" dy="10"/>
<feGaussianBlur stdDeviation="2"/>
<feComposite in2="hardAlpha" operator="out"/>
<feColorMatrix type="matrix" values="0 0 0 0 0 0 0 0 0 0 0 0 0 0 0 0 0 0 0.25 0"/>
<feBlend mode="normal" in2="BackgroundImageFix" result="effect1_dropShadow_47_3"/>
<feBlend mode="normal" in="SourceGraphic" in2="effect1_dropShadow_47_3" result="shape"/>
</filter>
</defs>
</svg>
