<svg width="913" height="532" viewBox="0 0 913 532" fill="none" xmlns="http://www.w3.org/2000/svg">
<g id="gc center">
<g id="connect" filter="url(#filter0_d_229_213)">
<path d="M245.668 491.201C236.068 491.201 227.516 489.27 220.013 485.408C212.51 481.435 206.606 475.973 202.303 469.022C198.11 462.07 196.013 454.181 196.013 445.353C196.013 436.415 198.11 428.526 202.303 421.684C206.606 414.733 212.51 409.326 220.013 405.464C227.516 401.492 236.068 399.505 245.668 399.505C255.047 399.505 263.212 401.492 270.164 405.464C277.116 409.326 282.247 414.898 285.557 422.181L265.53 432.939C263.212 428.746 260.288 425.657 256.757 423.671C253.337 421.684 249.585 420.691 245.502 420.691C241.089 420.691 237.116 421.684 233.585 423.671C230.054 425.657 227.24 428.471 225.144 432.112C223.158 435.753 222.165 440.167 222.165 445.353C222.165 450.539 223.158 454.953 225.144 458.594C227.24 462.236 230.054 465.049 233.585 467.036C237.116 469.022 241.089 470.015 245.502 470.015C249.585 470.015 253.337 469.077 256.757 467.201C260.288 465.215 263.212 462.07 265.53 457.767L285.557 468.691C282.247 475.863 277.116 481.435 270.164 485.408C263.212 489.27 255.047 491.201 245.668 491.201ZM341.664 491.201C332.174 491.201 323.733 489.215 316.34 485.242C309.057 481.27 303.264 475.863 298.961 469.022C294.768 462.07 292.671 454.181 292.671 445.353C292.671 436.415 294.768 428.526 298.961 421.684C303.264 414.733 309.057 409.326 316.34 405.464C323.733 401.492 332.174 399.505 341.664 399.505C351.043 399.505 359.429 401.492 366.822 405.464C374.215 409.326 380.008 414.678 384.201 421.519C388.394 428.36 390.491 436.305 390.491 445.353C390.491 454.181 388.394 462.07 384.201 469.022C380.008 475.863 374.215 481.27 366.822 485.242C359.429 489.215 351.043 491.201 341.664 491.201ZM341.664 470.015C345.967 470.015 349.829 469.022 353.25 467.036C356.671 465.049 359.374 462.236 361.36 458.594C363.346 454.843 364.339 450.429 364.339 445.353C364.339 440.167 363.346 435.753 361.36 432.112C359.374 428.471 356.671 425.657 353.25 423.671C349.829 421.684 345.967 420.691 341.664 420.691C337.361 420.691 333.499 421.684 330.078 423.671C326.657 425.657 323.899 428.471 321.802 432.112C319.816 435.753 318.823 440.167 318.823 445.353C318.823 450.429 319.816 454.843 321.802 458.594C323.899 462.236 326.657 465.049 330.078 467.036C333.499 469.022 337.361 470.015 341.664 470.015ZM461.873 399.505C468.935 399.505 475.225 400.94 480.742 403.809C486.369 406.567 490.783 410.871 493.983 416.719C497.183 422.457 498.783 429.85 498.783 438.898V489.877H472.963V442.87C472.963 435.698 471.363 430.402 468.163 426.981C465.073 423.56 460.659 421.85 454.921 421.85C450.839 421.85 447.142 422.733 443.832 424.498C440.632 426.153 438.094 428.746 436.218 432.277C434.453 435.808 433.57 440.332 433.57 445.85V489.877H407.75V400.829H432.411V425.491L427.777 418.043C430.977 412.085 435.556 407.505 441.515 404.305C447.473 401.105 454.259 399.505 461.873 399.505ZM576.311 399.505C583.373 399.505 589.663 400.94 595.18 403.809C600.807 406.567 605.221 410.871 608.421 416.719C611.621 422.457 613.221 429.85 613.221 438.898V489.877H587.401V442.87C587.401 435.698 585.801 430.402 582.601 426.981C579.511 423.56 575.097 421.85 569.36 421.85C565.277 421.85 561.58 422.733 558.27 424.498C555.07 426.153 552.532 428.746 550.656 432.277C548.891 435.808 548.008 440.332 548.008 445.85V489.877H522.188V400.829H546.85V425.491L542.215 418.043C545.415 412.085 549.994 407.505 555.953 404.305C561.911 401.105 568.698 399.505 576.311 399.505ZM681.465 491.201C671.313 491.201 662.376 489.215 654.652 485.242C647.038 481.27 641.134 475.863 636.941 469.022C632.748 462.07 630.652 454.181 630.652 445.353C630.652 436.415 632.693 428.526 636.776 421.684C640.969 414.733 646.652 409.326 653.824 405.464C660.996 401.492 669.107 399.505 678.155 399.505C686.872 399.505 694.706 401.381 701.658 405.133C708.72 408.774 714.292 414.071 718.375 421.022C722.458 427.864 724.499 436.084 724.499 445.684C724.499 446.677 724.444 447.836 724.333 449.16C724.223 450.374 724.113 451.532 724.002 452.636H651.672V437.574H710.43L700.499 442.043C700.499 437.408 699.561 433.381 697.685 429.96C695.81 426.54 693.217 423.891 689.906 422.015C686.596 420.029 682.734 419.036 678.32 419.036C673.906 419.036 669.989 420.029 666.569 422.015C663.258 423.891 660.665 426.595 658.789 430.126C656.914 433.546 655.976 437.629 655.976 442.374V446.346C655.976 451.201 657.024 455.505 659.12 459.256C661.327 462.898 664.362 465.711 668.224 467.698C672.196 469.573 676.831 470.511 682.127 470.511C686.872 470.511 691.01 469.794 694.541 468.36C698.182 466.925 701.492 464.773 704.472 461.905L718.209 476.801C714.127 481.435 708.996 485.021 702.816 487.559C696.637 489.987 689.52 491.201 681.465 491.201ZM784.723 491.201C775.123 491.201 766.572 489.27 759.068 485.408C751.565 481.435 745.662 475.973 741.358 469.022C737.165 462.07 735.069 454.181 735.069 445.353C735.069 436.415 737.165 428.526 741.358 421.684C745.662 414.733 751.565 409.326 759.068 405.464C766.572 401.492 775.123 399.505 784.723 399.505C794.102 399.505 802.268 401.492 809.219 405.464C816.171 409.326 821.302 414.898 824.612 422.181L804.585 432.939C802.268 428.746 799.344 425.657 795.813 423.671C792.392 421.684 788.64 420.691 784.558 420.691C780.144 420.691 776.171 421.684 772.64 423.671C769.11 425.657 766.296 428.471 764.199 432.112C762.213 435.753 761.22 440.167 761.22 445.353C761.22 450.539 762.213 454.953 764.199 458.594C766.296 462.236 769.11 465.049 772.64 467.036C776.171 469.022 780.144 470.015 784.558 470.015C788.64 470.015 792.392 469.077 795.813 467.201C799.344 465.215 802.268 462.07 804.585 457.767L824.612 468.691C821.302 475.863 816.171 481.435 809.219 485.408C802.268 489.27 794.102 491.201 784.723 491.201ZM877.185 491.201C866.703 491.201 858.537 488.552 852.689 483.256C846.841 477.849 843.917 469.849 843.917 459.256V381.133H869.737V458.925C869.737 462.677 870.73 465.601 872.716 467.698C874.702 469.684 877.406 470.677 880.827 470.677C884.909 470.677 888.385 469.573 891.254 467.367L898.206 485.573C895.557 487.449 892.357 488.883 888.606 489.877C884.964 490.759 881.158 491.201 877.185 491.201ZM830.179 422.677V402.816H891.916V422.677H830.179Z" fill="white"/>
</g>
<g id="Gift" filter="url(#filter1_d_229_213)">
<path d="M159.273 370.539C138.339 370.539 119.045 367.261 101.39 360.703C83.9871 353.893 68.7281 344.309 55.613 331.951C42.7502 319.592 32.6616 305.09 25.3474 288.444C18.2855 271.798 14.7545 253.512 14.7545 233.588C14.7545 213.663 18.2855 195.377 25.3474 178.731C32.6616 162.085 42.8763 147.583 55.9914 135.224C69.1065 122.866 84.4915 113.408 102.146 106.85C119.801 100.041 139.222 96.6357 160.408 96.6357C183.864 96.6357 204.923 100.545 223.587 108.364C242.503 116.182 258.393 127.532 271.255 142.412L231.91 178.731C222.326 168.643 211.859 161.202 200.51 156.41C189.16 151.366 176.802 148.844 163.434 148.844C150.571 148.844 138.843 150.862 128.25 154.897C117.658 158.932 108.452 164.733 100.633 172.3C93.0667 179.866 87.1397 188.82 82.8521 199.16C78.8167 209.501 76.799 220.977 76.799 233.588C76.799 245.946 78.8167 257.296 82.8521 267.636C87.1397 277.977 93.0667 287.057 100.633 294.875C108.452 302.442 117.531 308.243 127.872 312.278C138.465 316.314 150.067 318.331 162.678 318.331C174.784 318.331 186.512 316.44 197.861 312.656C209.463 308.621 220.687 301.937 231.532 292.605L266.337 336.869C251.961 347.714 235.189 356.037 216.021 361.838C197.105 367.639 178.189 370.539 159.273 370.539ZM210.346 328.924V229.426H266.337V336.869L210.346 328.924ZM440.087 366V157.924C440.087 134.972 446.896 116.687 460.516 103.067C474.136 89.1954 493.556 82.2595 518.777 82.2595C527.353 82.2595 535.549 83.1423 543.368 84.9078C551.439 86.6733 558.249 89.4476 563.797 93.2308L548.286 135.981C545.007 133.711 541.35 131.946 537.315 130.684C533.28 129.423 528.992 128.793 524.452 128.793C515.877 128.793 509.193 131.315 504.401 136.359C499.861 141.151 497.591 148.466 497.591 158.302V177.218L499.105 202.565V366H440.087ZM408.686 212.402V167.003H549.8V212.402H408.686ZM662.432 369.026C638.472 369.026 619.808 362.973 606.441 350.867C593.074 338.508 586.39 320.223 586.39 296.01V117.443H645.408V295.254C645.408 303.829 647.678 310.513 652.218 315.305C656.758 319.845 662.937 322.114 670.756 322.114C680.087 322.114 688.032 319.592 694.59 314.548L710.479 356.163C704.426 360.451 697.112 363.73 688.537 366C680.214 368.017 671.512 369.026 662.432 369.026ZM554.99 212.402V167.003H696.103V212.402H554.99Z" fill="white"/>
<path d="M319.107 366V162.463H378.125V366H319.107ZM348.616 134.089C337.771 134.089 328.943 130.937 322.134 124.631C315.324 118.326 311.919 110.507 311.919 101.176C311.919 91.8436 315.324 84.025 322.134 77.7197C328.943 71.4144 337.771 68.2617 348.616 68.2617C359.461 68.2617 368.289 71.2882 375.098 77.3414C381.908 83.1423 385.313 90.7087 385.313 100.041C385.313 109.877 381.908 118.074 375.098 124.631C368.541 130.937 359.713 134.089 348.616 134.089Z" fill="#F79256"/>
</g>
</g>
<defs>
<filter id="filter0_d_229_213" x="196.014" y="381.133" width="716.192" height="124.068" filterUnits="userSpaceOnUse" color-interpolation-filters="sRGB">
<feFlood flood-opacity="0" result="BackgroundImageFix"/>
<feColorMatrix in="SourceAlpha" type="matrix" values="0 0 0 0 0 0 0 0 0 0 0 0 0 0 0 0 0 0 127 0" result="hardAlpha"/>
<feOffset dx="10" dy="10"/>
<feGaussianBlur stdDeviation="2"/>
<feComposite in2="hardAlpha" operator="out"/>
<feColorMatrix type="matrix" values="0 0 0 0 0 0 0 0 0 0 0 0 0 0 0 0 0 0 0.25 0"/>
<feBlend mode="normal" in2="BackgroundImageFix" result="effect1_dropShadow_229_213"/>
<feBlend mode="normal" in="SourceGraphic" in2="effect1_dropShadow_229_213" result="shape"/>
</filter>
<filter id="filter1_d_229_213" x="14.7549" y="68.2617" width="709.725" height="316.278" filterUnits="userSpaceOnUse" color-interpolation-filters="sRGB">
<feFlood flood-opacity="0" result="BackgroundImageFix"/>
<feColorMatrix in="SourceAlpha" type="matrix" values="0 0 0 0 0 0 0 0 0 0 0 0 0 0 0 0 0 0 127 0" result="hardAlpha"/>
<feOffset dx="10" dy="10"/>
<feGaussianBlur stdDeviation="2"/>
<feComposite in2="hardAlpha" operator="out"/>
<feColorMatrix type="matrix" values="0 0 0 0 0 0 0 0 0 0 0 0 0 0 0 0 0 0 0.25 0"/>
<feBlend mode="normal" in2="BackgroundImageFix" result="effect1_dropShadow_229_213"/>
<feBlend mode="normal" in="SourceGraphic" in2="effect1_dropShadow_229_213" result="shape"/>
</filter>
</defs>
</svg>
